{
  "source": "C:\\Users\\Peter\\Desktop\\stuff\\MIUN\\quantitative_research\\video_compression\\videos\\UVG\\YachtRide_1920x1080_120fps_420_8bit_YUV.y4m",
  "output": "C:\\Users\\Peter\\Desktop\\stuff\\MIUN\\quantitative_research\\video_compression\\compressed_videos\\UVG\\av1\\2\\YachtRide_1920x1080_120fps_420_8bit_YUV_av1.mkv",
  "codec": "av1",
  "ok": "[yuv4mpegpipe @ 000002a1a3945380] Stream #0: not enough frames to estimate rate; consider increasing probesize\nInput #0, yuv4mpegpipe, from 'C:\\Users\\Peter\\Desktop\\stuff\\MIUN\\quantitative_research\\video_compression\\videos\\UVG\\YachtRide_1920x1080_120fps_420_8bit_YUV.y4m':\n  Duration: 00:00:05.00, start: 0.000000, bitrate: 2985989 kb/s\n  Stream #0:0: Video: rawvideo (I420 / 0x30323449), yuv420p(progressive), 1920x1080, 120 fps, 120 tbr, 120 tbn\n[out#0/matroska @ 000002a1a39490c0] Codec AVOption b:a (set bitrate (in bits/s)) has not been used for any stream. The most likely reason is either wrong type (e.g. a video option with no video streams) or that it is a private option of some decoder which was not actually used for any stream.\nStream mapping:\n  Stream #0:0 -> #0:0 (rawvideo (native) -> av1 (libsvtav1))\nPress [q] to stop, [?] for help\nSvt[info]: -------------------------------------------\nSvt[info]: SVT [version]:\tSVT-AV1 Encoder Lib v3.1.0-19-g6ecfe8ec\nSvt[info]: SVT [build]  :\tGCC 15.2.0\t 64 bit\nSvt[info]: LIB Build date: Aug 17 2025 11:37:13\nSvt[info]: -------------------------------------------\n[libsvtav1 @ 000002a1a394c1c0] Specified chroma sample location center is unsupported on the AV1 bit stream level. Usage of a container that allows passing this information - such as Matroska - is recommended.\nSvt[info]: Level of Parallelism: 5\nSvt[info]: Number of PPCS 93\nSvt[info]: [asm level on system : up to avx2]\nSvt[info]: [asm level selected : up to avx2]\nSvt[info]: -------------------------------------------\nSvt[info]: SVT [config]: main profile\ttier (auto)\tlevel (auto)\nSvt[info]: SVT [config]: width / height / fps numerator / fps denominator \t\t: 1920 / 1080 / 120 / 1\nSvt[info]: SVT [config]: bit-depth / color format \t\t\t\t\t: 8 / YUV420\nSvt[info]: SVT [config]: preset / tune / pred struct \t\t\t\t\t: 4 / PSNR / random access\nSvt[info]: SVT [config]: gop size / mini-gop size / key-frame type \t\t\t: 641 / 16 / key frame\nSvt[info]: SVT [config]: BRC mode / target bitrate (kbps)\t\t\t\t: VBR / 2000 \nSvt[info]: SVT [config]: AQ mode / Variance Boost \t\t\t\t\t: 2 / 0\nSvt[info]: SVT [config]: sharpness / luminance-based QP bias \t\t\t\t: 0 / 0\nSvt[info]: SVT [config]: QP scale compress strength \t\t\t\t\t: 0\nSvt[info]: -------------------------------------------\nOutput #0, matroska, to 'C:\\Users\\Peter\\Desktop\\stuff\\MIUN\\quantitative_research\\video_compression\\compressed_videos\\UVG\\av1\\2\\YachtRide_1920x1080_120fps_420_8bit_YUV_av1.mkv':\n  Metadata:\n    encoder         : Lavf62.3.100\n  Stream #0:0: Video: av1 (AV01 / 0x31305641), yuv420p(tv, progressive), 1920x1080, q=2-31, 2000 kb/s, 120 fps, 1k tbn\n    Metadata:\n      encoder         : Lavc62.11.100 libsvtav1\n    Side data:\n      cpb: bitrate max/min/avg: 0/0/2000000 buffer size: 2000000 vbv_delay: N/A\nframe=    0 fps=0.0 q=0.0 size=       0KiB time=N/A bitrate=N/A speed=N/A elapsed=0:00:02.81    \nframe=    0 fps=0.0 q=0.0 size=       0KiB time=N/A bitrate=N/A speed=N/A elapsed=0:00:03.32    \nframe=    0 fps=0.0 q=0.0 size=       0KiB time=N/A bitrate=N/A speed=N/A elapsed=0:00:03.84    \nframe=    0 fps=0.0 q=0.0 size=       0KiB time=N/A bitrate=N/A speed=N/A elapsed=0:00:04.35    \nframe=    0 fps=0.0 q=0.0 size=       0KiB time=N/A bitrate=N/A speed=N/A elapsed=0:00:04.88    \nframe=    0 fps=0.0 q=0.0 size=       0KiB time=N/A bitrate=N/A speed=N/A elapsed=0:00:05.40    \nframe=    0 fps=0.0 q=0.0 size=       0KiB time=N/A bitrate=N/A speed=N/A elapsed=0:00:05.90    \nframe=    0 fps=0.0 q=0.0 size=       0KiB time=N/A bitrate=N/A speed=N/A elapsed=0:00:06.41    \nframe=    0 fps=0.0 q=0.0 size=       0KiB time=N/A bitrate=N/A speed=N/A elapsed=0:00:06.94    \nframe=    0 fps=0.0 q=0.0 size=       0KiB time=N/A bitrate=N/A speed=N/A elapsed=0:00:07.46    \nframe=    0 fps=0.0 q=0.0 size=       0KiB time=N/A bitrate=N/A speed=N/A elapsed=0:00:07.97    \nframe=    0 fps=0.0 q=0.0 size=       0KiB time=N/A bitrate=N/A speed=N/A elapsed=0:00:08.48    \nframe=    0 fps=0.0 q=0.0 size=       0KiB time=N/A bitrate=N/A speed=N/A elapsed=0:00:08.99    \nframe=    0 fps=0.0 q=0.0 size=       0KiB time=N/A bitrate=N/A speed=N/A elapsed=0:00:09.51    \nframe=    0 fps=0.0 q=0.0 size=       0KiB time=N/A bitrate=N/A speed=N/A elapsed=0:00:10.03    \nframe=    0 fps=0.0 q=0.0 size=       0KiB time=N/A bitrate=N/A speed=N/A elapsed=0:00:10.55    \nframe=    0 fps=0.0 q=0.0 size=       0KiB time=N/A bitrate=N/A speed=N/A elapsed=0:00:11.06    \nframe=    0 fps=0.0 q=0.0 size=       0KiB time=N/A bitrate=N/A speed=N/A elapsed=0:00:11.57    \nframe=    0 fps=0.0 q=0.0 size=       0KiB time=N/A bitrate=N/A speed=N/A elapsed=0:00:12.10    \nframe=    0 fps=0.0 q=0.0 size=       0KiB time=N/A bitrate=N/A speed=N/A elapsed=0:00:12.60    \nframe=    0 fps=0.0 q=0.0 size=       0KiB time=N/A bitrate=N/A speed=N/A elapsed=0:00:13.13    \nframe=    0 fps=0.0 q=0.0 size=       0KiB time=N/A bitrate=N/A speed=N/A elapsed=0:00:13.63    \nframe=    0 fps=0.0 q=0.0 size=       0KiB time=N/A bitrate=N/A speed=N/A elapsed=0:00:14.15    \nframe=    0 fps=0.0 q=0.0 size=       0KiB time=N/A bitrate=N/A speed=N/A elapsed=0:00:14.67    \nframe=    0 fps=0.0 q=0.0 size=       0KiB time=N/A bitrate=N/A speed=N/A elapsed=0:00:15.19    \nframe=    0 fps=0.0 q=0.0 size=       0KiB time=N/A bitrate=N/A speed=N/A elapsed=0:00:15.70    \nframe=    0 fps=0.0 q=0.0 size=       0KiB time=N/A bitrate=N/A speed=N/A elapsed=0:00:16.21    \nframe=    0 fps=0.0 q=0.0 size=       0KiB time=N/A bitrate=N/A speed=N/A elapsed=0:00:16.73    \nframe=    0 fps=0.0 q=0.0 size=       0KiB time=N/A bitrate=N/A speed=N/A elapsed=0:00:17.24    \nframe=    0 fps=0.0 q=0.0 size=       0KiB time=N/A bitrate=N/A speed=N/A elapsed=0:00:17.77    \nframe=    0 fps=0.0 q=0.0 size=       0KiB time=N/A bitrate=N/A speed=N/A elapsed=0:00:18.29    \nframe=    1 fps=0.1 q=36.0 size=       1KiB time=00:00:00.00 bitrate=N/A speed=   0x elapsed=0:00:18.80    \nframe=    1 fps=0.1 q=36.0 size=       1KiB time=00:00:00.00 bitrate=N/A speed=   0x elapsed=0:00:19.33    \nframe=    1 fps=0.1 q=36.0 size=       1KiB time=00:00:00.00 bitrate=N/A speed=   0x elapsed=0:00:19.85    \nframe=    1 fps=0.0 q=36.0 size=       1KiB time=00:00:00.00 bitrate=N/A speed=   0x elapsed=0:00:20.36    \nframe=    1 fps=0.0 q=36.0 size=       1KiB time=00:00:00.00 bitrate=N/A speed=   0x elapsed=0:00:20.88    \nframe=    1 fps=0.0 q=36.0 size=       1KiB time=00:00:00.00 bitrate=N/A speed=   0x elapsed=0:00:21.39    \nframe=    1 fps=0.0 q=36.0 size=       1KiB time=00:00:00.00 bitrate=N/A speed=   0x elapsed=0:00:21.92    \nframe=    1 fps=0.0 q=36.0 size=       1KiB time=00:00:00.00 bitrate=N/A speed=   0x elapsed=0:00:22.44    \nframe=    1 fps=0.0 q=36.0 size=       1KiB time=00:00:00.00 bitrate=N/A speed=   0x elapsed=0:00:22.95    \nframe=    4 fps=0.2 q=60.0 size=       1KiB time=00:00:00.02 bitrate= 179.2kbits/s speed=0.00107x elapsed=0:00:23.47    \nframe=    7 fps=0.3 q=56.0 size=       1KiB time=00:00:00.05 bitrate=  89.6kbits/s speed=0.00208x elapsed=0:00:23.99    \nframe=    7 fps=0.3 q=56.0 size=       1KiB time=00:00:00.05 bitrate=  89.6kbits/s speed=0.00204x elapsed=0:00:24.50    \nframe=    8 fps=0.3 q=56.0 size=       1KiB time=00:00:00.05 bitrate=  76.8kbits/s speed=0.00233x elapsed=0:00:25.01    \nframe=    9 fps=0.4 q=52.0 size=       1KiB time=00:00:00.06 bitrate=  67.2kbits/s speed=0.00261x elapsed=0:00:25.54    \nframe=   11 fps=0.4 q=56.0 size=       1KiB time=00:00:00.08 bitrate=  53.8kbits/s speed=0.0032x elapsed=0:00:26.04    \nframe=   13 fps=0.5 q=54.0 size=       1KiB time=00:00:00.10 bitrate=  44.8kbits/s speed=0.00376x elapsed=0:00:26.56    \nframe=   15 fps=0.6 q=56.0 size=       1KiB time=00:00:00.11 bitrate=  38.4kbits/s speed=0.00431x elapsed=0:00:27.08    \nframe=   15 fps=0.5 q=56.0 size=       1KiB time=00:00:00.11 bitrate=  38.4kbits/s speed=0.00423x elapsed=0:00:27.59    \nframe=   18 fps=0.6 q=53.0 size=       1KiB time=00:00:00.14 bitrate=  31.6kbits/s speed=0.00504x elapsed=0:00:28.11    \nframe=   20 fps=0.7 q=53.0 size=       1KiB time=00:00:00.15 bitrate=  28.3kbits/s speed=0.00553x elapsed=0:00:28.62    \nframe=   22 fps=0.8 q=53.0 size=       1KiB time=00:00:00.17 bitrate=  25.6kbits/s speed=0.00601x elapsed=0:00:29.13    \nframe=   23 fps=0.8 q=56.0 size=       1KiB time=00:00:00.18 bitrate=  24.4kbits/s speed=0.00618x elapsed=0:00:29.66    \nframe=   23 fps=0.8 q=56.0 size=       1KiB time=00:00:00.18 bitrate=  24.4kbits/s speed=0.00608x elapsed=0:00:30.17    \nframe=   24 fps=0.8 q=53.0 size=       1KiB time=00:00:00.19 bitrate=  23.4kbits/s speed=0.00624x elapsed=0:00:30.69    \nframe=   25 fps=0.8 q=53.0 size=       1KiB time=00:00:00.20 bitrate=  22.4kbits/s speed=0.00641x elapsed=0:00:31.20    \nframe=   26 fps=0.8 q=52.0 size=       1KiB time=00:00:00.20 bitrate=  21.5kbits/s speed=0.00657x elapsed=0:00:31.71    \nframe=   28 fps=0.9 q=52.0 size=       1KiB time=00:00:00.22 bitrate=  19.9kbits/s speed=0.00698x elapsed=0:00:32.23    \nframe=   29 fps=0.9 q=55.0 size=       1KiB time=00:00:00.23 bitrate=  19.2kbits/s speed=0.00712x elapsed=0:00:32.75    \nframe=   31 fps=0.9 q=55.0 size=       1KiB time=00:00:00.25 bitrate=  17.9kbits/s speed=0.00751x elapsed=0:00:33.27    \nframe=   32 fps=0.9 q=53.0 size=       1KiB time=00:00:00.25 bitrate=  17.3kbits/s speed=0.00765x elapsed=0:00:33.77    \nframe=   34 fps=1.0 q=53.0 size=       1KiB time=00:00:00.27 bitrate=  16.3kbits/s speed=0.00802x elapsed=0:00:34.30    \nframe=   36 fps=1.0 q=54.0 size=       1KiB time=00:00:00.29 bitrate=  15.4kbits/s speed=0.00838x elapsed=0:00:34.81    \nframe=   37 fps=1.0 q=54.0 size=       1KiB time=00:00:00.30 bitrate=  14.9kbits/s speed=0.00849x elapsed=0:00:35.33    \nframe=   38 fps=1.1 q=53.0 size=       1KiB time=00:00:00.30 bitrate=  14.5kbits/s speed=0.0086x elapsed=0:00:35.84    \nframe=   39 fps=1.1 q=54.0 size=       1KiB time=00:00:00.31 bitrate=  14.1kbits/s speed=0.00871x elapsed=0:00:36.36    \nframe=   39 fps=1.1 q=54.0 size=       1KiB time=00:00:00.31 bitrate=  14.1kbits/s speed=0.00859x elapsed=0:00:36.87    \nframe=   40 fps=1.1 q=54.0 size=       1KiB time=00:00:00.32 bitrate=  13.8kbits/s speed=0.00869x elapsed=0:00:37.40    \nframe=   42 fps=1.1 q=55.0 size=       1KiB time=00:00:00.34 bitrate=  13.1kbits/s speed=0.00901x elapsed=0:00:37.91    \nframe=   44 fps=1.1 q=55.0 size=       1KiB time=00:00:00.35 bitrate=  12.5kbits/s speed=0.00933x elapsed=0:00:38.41    \nframe=   45 fps=1.2 q=53.0 size=       1KiB time=00:00:00.36 bitrate=  12.2kbits/s speed=0.00941x elapsed=0:00:38.94    \nframe=   47 fps=1.2 q=55.0 size=       1KiB time=00:00:00.38 bitrate=  11.7kbits/s speed=0.00971x elapsed=0:00:39.47    \nframe=   47 fps=1.2 q=55.0 size=       1KiB time=00:00:00.38 bitrate=  11.7kbits/s speed=0.00959x elapsed=0:00:39.98    \nframe=   49 fps=1.2 q=40.0 size=       1KiB time=00:00:00.40 bitrate=  11.2kbits/s speed=0.00988x elapsed=0:00:40.50    \nframe=   49 fps=1.2 q=40.0 size=       1KiB time=00:00:00.40 bitrate=  11.2kbits/s speed=0.00975x elapsed=0:00:41.02    \nframe=   51 fps=1.2 q=55.0 size=       1KiB time=00:00:00.41 bitrate=  10.8kbits/s speed=0.01x elapsed=0:00:41.53    \nframe=   51 fps=1.2 q=55.0 size=       1KiB time=00:00:00.41 bitrate=  10.8kbits/s speed=0.00991x elapsed=0:00:42.05    \nframe=   53 fps=1.2 q=54.0 size=       1KiB time=00:00:00.43 bitrate=  10.3kbits/s speed=0.0102x elapsed=0:00:42.56    \nframe=   54 fps=1.3 q=56.0 size=       1KiB time=00:00:00.44 bitrate=  10.1kbits/s speed=0.0103x elapsed=0:00:43.08    \nframe=   54 fps=1.2 q=56.0 size=       1KiB time=00:00:00.44 bitrate=  10.1kbits/s speed=0.0101x elapsed=0:00:43.59    \nframe=   54 fps=1.2 q=56.0 size=       1KiB time=00:00:00.44 bitrate=  10.1kbits/s speed=0.01x elapsed=0:00:44.11    \nframe=   55 fps=1.2 q=54.0 size=       1KiB time=00:00:00.45 bitrate=  10.0kbits/s speed=0.0101x elapsed=0:00:44.63    \nframe=   57 fps=1.3 q=52.0 size=       1KiB time=00:00:00.46 bitrate=   9.6kbits/s speed=0.0103x elapsed=0:00:45.14    \nframe=   58 fps=1.3 q=57.0 size=       1KiB time=00:00:00.47 bitrate=   9.4kbits/s speed=0.0104x elapsed=0:00:45.66    \nframe=   60 fps=1.3 q=57.0 size=       1KiB time=00:00:00.49 bitrate=   9.1kbits/s speed=0.0106x elapsed=0:00:46.17    \nframe=   63 fps=1.3 q=56.0 size=       1KiB time=00:00:00.51 bitrate=   8.7kbits/s speed=0.0111x elapsed=0:00:46.68    \nframe=   66 fps=1.4 q=59.0 size=       1KiB time=00:00:00.54 bitrate=   8.3kbits/s speed=0.0115x elapsed=0:00:47.20    \nframe=   69 fps=1.4 q=56.0 size=       1KiB time=00:00:00.56 bitrate=   7.9kbits/s speed=0.0119x elapsed=0:00:47.71    \nframe=   70 fps=1.5 q=59.0 size=       1KiB time=00:00:00.57 bitrate=   7.8kbits/s speed=0.0119x elapsed=0:00:48.23    \nframe=   72 fps=1.5 q=59.0 size=       1KiB time=00:00:00.59 bitrate=   7.6kbits/s speed=0.0121x elapsed=0:00:48.76    \nframe=   73 fps=1.5 q=52.0 size=       1KiB time=00:00:00.60 bitrate=   7.5kbits/s speed=0.0122x elapsed=0:00:49.27    \nframe=   74 fps=1.5 q=51.0 size=       1KiB time=00:00:00.60 bitrate=   7.4kbits/s speed=0.0122x elapsed=0:00:49.78    \nframe=   75 fps=1.5 q=58.0 size=       1KiB time=00:00:00.61 bitrate=   7.3kbits/s speed=0.0123x elapsed=0:00:50.33    \nframe=   78 fps=1.5 q=58.0 size=       1KiB time=00:00:00.64 bitrate=   7.0kbits/s speed=0.0126x elapsed=0:00:50.90    \nframe=   80 fps=1.6 q=58.0 size=       1KiB time=00:00:00.65 bitrate=   6.8kbits/s speed=0.0128x elapsed=0:00:51.47    \nframe=   82 fps=1.6 q=59.0 size=       1KiB time=00:00:00.67 bitrate=   6.6kbits/s speed=0.013x elapsed=0:00:52.03    \nframe=   85 fps=1.6 q=56.0 size=       1KiB time=00:00:00.70 bitrate=   6.4kbits/s speed=0.0133x elapsed=0:00:52.56    \nframe=   86 fps=1.6 q=59.0 size=       1KiB time=00:00:00.70 bitrate=   6.3kbits/s speed=0.0133x elapsed=0:00:53.12    \nframe=   87 fps=1.6 q=58.0 size=       1KiB time=00:00:00.71 bitrate=   6.3kbits/s speed=0.0134x elapsed=0:00:53.65    \nframe=   88 fps=1.6 q=51.0 size=       1KiB time=00:00:00.71 bitrate=   6.3kbits/s speed=0.0132x elapsed=0:00:54.26    \nframe=   90 fps=1.6 q=58.0 size=       1KiB time=00:00:00.74 bitrate=   6.0kbits/s speed=0.0135x elapsed=0:00:54.84    \nframe=   92 fps=1.7 q=58.0 size=       1KiB time=00:00:00.75 bitrate=   5.9kbits/s speed=0.0137x elapsed=0:00:55.36    \nframe=   94 fps=1.7 q=58.0 size=       1KiB time=00:00:00.77 bitrate=   5.8kbits/s speed=0.0139x elapsed=0:00:55.95    \nframe=   97 fps=1.7 q=42.0 size=       1KiB time=00:00:00.79 bitrate=   5.7kbits/s speed=0.014x elapsed=0:00:56.46    \nframe=   99 fps=1.7 q=58.0 size=       1KiB time=00:00:00.81 bitrate=   5.5kbits/s speed=0.0143x elapsed=0:00:57.02    \nframe=  102 fps=1.8 q=59.0 size=       1KiB time=00:00:00.84 bitrate=   5.3kbits/s speed=0.0146x elapsed=0:00:57.54    \nframe=  102 fps=1.8 q=59.0 size=       1KiB time=00:00:00.84 bitrate=   5.3kbits/s speed=0.0145x elapsed=0:00:58.08    \nframe=  103 fps=1.8 q=58.0 size=       1KiB time=00:00:00.85 bitrate=   5.3kbits/s speed=0.0145x elapsed=0:00:58.66    \nframe=  104 fps=1.8 q=59.0 size=       1KiB time=00:00:00.85 bitrate=   5.2kbits/s speed=0.0145x elapsed=0:00:59.24    \nframe=  107 fps=1.8 q=56.0 size=       1KiB time=00:00:00.88 bitrate=   5.1kbits/s speed=0.0148x elapsed=0:00:59.75    \nframe=  107 fps=1.8 q=56.0 size=       1KiB time=00:00:00.88 bitrate=   5.1kbits/s speed=0.0146x elapsed=0:01:00.33    \nframe=  109 fps=1.8 q=53.0 size=       1KiB time=00:00:00.90 bitrate=   5.0kbits/s speed=0.0148x elapsed=0:01:00.92    \nframe=  110 fps=1.8 q=58.0 size=       1KiB time=00:00:00.90 bitrate=   4.9kbits/s speed=0.0148x elapsed=0:01:01.52    \nframe=  111 fps=1.8 q=56.0 size=       1KiB time=00:00:00.91 bitrate=   4.9kbits/s speed=0.0148x elapsed=0:01:02.11    \nframe=  111 fps=1.8 q=56.0 size=       1KiB time=00:00:00.91 bitrate=   4.9kbits/s speed=0.0146x elapsed=0:01:02.64    \nframe=  114 fps=1.8 q=59.0 size=       1KiB time=00:00:00.94 bitrate=   4.8kbits/s speed=0.0149x elapsed=0:01:03.19    \nframe=  116 fps=1.8 q=59.0 size=       1KiB time=00:00:00.95 bitrate=   4.7kbits/s speed=0.0149x elapsed=0:01:03.73    \nframe=  118 fps=1.8 q=59.0 size=       1KiB time=00:00:00.97 bitrate=   4.6kbits/s speed=0.0152x elapsed=0:01:04.32    \nframe=  119 fps=1.8 q=58.0 size=       1KiB time=00:00:00.98 bitrate=   4.6kbits/s speed=0.0152x elapsed=0:01:04.85    \nframe=  122 fps=1.9 q=59.0 size=       1KiB time=00:00:01.00 bitrate=   4.4kbits/s speed=0.0154x elapsed=0:01:05.49    \nframe=  125 fps=1.9 q=56.0 size=       1KiB time=00:00:01.03 bitrate=   4.3kbits/s speed=0.0157x elapsed=0:01:06.01    \nframe=  127 fps=1.9 q=58.0 size=       1KiB time=00:00:01.05 bitrate=   4.3kbits/s speed=0.0158x elapsed=0:01:06.52    \nframe=  128 fps=1.9 q=56.0 size=       1KiB time=00:00:01.05 bitrate=   4.2kbits/s speed=0.0158x elapsed=0:01:07.04    \nframe=  130 fps=1.9 q=59.0 size=       1KiB time=00:00:01.07 bitrate=   4.2kbits/s speed=0.0159x elapsed=0:01:07.57    \nframe=  131 fps=1.9 q=58.0 size=       1KiB time=00:00:01.08 bitrate=   4.1kbits/s speed=0.0159x elapsed=0:01:08.09    \nframe=  134 fps=2.0 q=59.0 size=       1KiB time=00:00:01.10 bitrate=   4.0kbits/s speed=0.0162x elapsed=0:01:08.61    \nframe=  134 fps=1.9 q=59.0 size=       1KiB time=00:00:01.10 bitrate=   4.0kbits/s speed=0.016x elapsed=0:01:09.14    \nframe=  135 fps=1.9 q=58.0 size=       1KiB time=00:00:01.11 bitrate=   4.0kbits/s speed=0.016x elapsed=0:01:09.69    \nframe=  137 fps=2.0 q=52.0 size=       1KiB time=00:00:01.13 bitrate=   4.0kbits/s speed=0.0161x elapsed=0:01:10.21    \nframe=  140 fps=2.0 q=59.0 size=       1KiB time=00:00:01.15 bitrate=   3.9kbits/s speed=0.0164x elapsed=0:01:10.81    \nframe=  142 fps=2.0 q=59.0 size=       1KiB time=00:00:01.16 bitrate=   3.8kbits/s speed=0.0163x elapsed=0:01:11.38    \nframe=  143 fps=2.0 q=58.0 size=       1KiB time=00:00:01.18 bitrate=   3.8kbits/s speed=0.0164x elapsed=0:01:11.95    \nframe=  144 fps=2.0 q=59.0 size=       1KiB time=00:00:01.19 bitrate=   3.8kbits/s speed=0.0164x elapsed=0:01:12.48    \nframe=  145 fps=2.0 q=43.0 size=       1KiB time=00:00:01.20 bitrate=   3.7kbits/s speed=0.0164x elapsed=0:01:13.08    \nframe=  147 fps=2.0 q=59.0 size=       1KiB time=00:00:01.21 bitrate=   3.7kbits/s speed=0.0165x elapsed=0:01:13.63    \nframe=  150 fps=2.0 q=60.0 size=       1KiB time=00:00:01.24 bitrate=   3.6kbits/s speed=0.0167x elapsed=0:01:14.16    \nframe=  150 fps=2.0 q=60.0 size=       1KiB time=00:00:01.24 bitrate=   3.6kbits/s speed=0.0166x elapsed=0:01:14.67    \nframe=  151 fps=2.0 q=59.0 size=       1KiB time=00:00:01.25 bitrate=   3.6kbits/s speed=0.0166x elapsed=0:01:15.23    \nframe=  154 fps=2.0 q=60.0 size=       1KiB time=00:00:01.27 bitrate=   3.5kbits/s speed=0.0168x elapsed=0:01:15.78    \nframe=  156 fps=2.0 q=60.0 size=       1KiB time=00:00:01.28 bitrate=   3.5kbits/s speed=0.0168x elapsed=0:01:16.36    \nframe=  158 fps=2.1 q=60.0 size=       1KiB time=00:00:01.30 bitrate=   3.4kbits/s speed=0.017x elapsed=0:01:16.97    \nframe=  158 fps=2.0 q=60.0 size=       1KiB time=00:00:01.30 bitrate=   3.4kbits/s speed=0.0169x elapsed=0:01:17.53    \nframe=  158 fps=2.0 q=60.0 size=       1KiB time=00:00:01.30 bitrate=   3.4kbits/s speed=0.0168x elapsed=0:01:18.04    \nframe=  160 fps=2.0 q=60.0 size=       1KiB time=00:00:01.32 bitrate=   3.4kbits/s speed=0.0169x elapsed=0:01:18.57    \nframe=  162 fps=2.0 q=60.0 size=       1KiB time=00:00:01.34 bitrate=   3.3kbits/s speed=0.017x elapsed=0:01:19.09    \nframe=  166 fps=2.1 q=60.0 size=       1KiB time=00:00:01.37 bitrate=   3.3kbits/s speed=0.0173x elapsed=0:01:19.63    \nframe=  166 fps=2.1 q=60.0 size=       1KiB time=00:00:01.37 bitrate=   3.3kbits/s speed=0.0171x elapsed=0:01:20.18    \nframe=  167 fps=2.1 q=59.0 size=       1KiB time=00:00:01.38 bitrate=   3.2kbits/s speed=0.0171x elapsed=0:01:20.70    \nframe=  167 fps=2.1 q=59.0 size=       1KiB time=00:00:01.38 bitrate=   3.2kbits/s speed=0.017x elapsed=0:01:21.27    \nframe=  170 fps=2.1 q=60.0 size=       1KiB time=00:00:01.40 bitrate=   3.2kbits/s speed=0.0171x elapsed=0:01:21.82    \nframe=  171 fps=2.1 q=59.0 size=       1KiB time=00:00:01.41 bitrate=   3.2kbits/s speed=0.0172x elapsed=0:01:22.38    \nframe=  173 fps=2.1 q=57.0 size=       1KiB time=00:00:01.43 bitrate=   3.1kbits/s speed=0.0173x elapsed=0:01:22.90    \nframe=  175 fps=2.1 q=59.0 size=       1KiB time=00:00:01.45 bitrate=   3.1kbits/s speed=0.0174x elapsed=0:01:23.46    \nframe=  176 fps=2.1 q=60.0 size=       1KiB time=00:00:01.45 bitrate=   3.1kbits/s speed=0.0174x elapsed=0:01:24.04    \nframe=  178 fps=2.1 q=60.0 size=       1KiB time=00:00:01.47 bitrate=   3.0kbits/s speed=0.0174x elapsed=0:01:24.58    \nframe=  180 fps=2.1 q=60.0 size=       1KiB time=00:00:01.49 bitrate=   3.0kbits/s speed=0.0175x elapsed=0:01:25.12    \nframe=  181 fps=2.1 q=57.0 size=       1KiB time=00:00:01.50 bitrate=   3.0kbits/s speed=0.0175x elapsed=0:01:25.66    \nframe=  182 fps=2.1 q=60.0 size=       1KiB time=00:00:01.50 bitrate=   3.0kbits/s speed=0.0175x elapsed=0:01:26.19    \nframe=  183 fps=2.1 q=59.0 size=       1KiB time=00:00:01.51 bitrate=   3.0kbits/s speed=0.0175x elapsed=0:01:26.70    \nframe=  186 fps=2.1 q=60.0 size=       1KiB time=00:00:01.54 bitrate=   2.9kbits/s speed=0.0177x elapsed=0:01:27.22    \nframe=  189 fps=2.2 q=57.0 size=       1KiB time=00:00:01.55 bitrate=   2.9kbits/s speed=0.0178x elapsed=0:01:27.74    \nframe=  190 fps=2.2 q=57.0 size=       1KiB time=00:00:01.57 bitrate=   2.8kbits/s speed=0.0178x elapsed=0:01:28.30    \nframe=  191 fps=2.1 q=53.0 size=       1KiB time=00:00:01.58 bitrate=   2.8kbits/s speed=0.0178x elapsed=0:01:28.86    \nframe=  194 fps=2.2 q=60.0 size=       1KiB time=00:00:01.60 bitrate=   2.8kbits/s speed=0.018x elapsed=0:01:29.38    \nframe=  196 fps=2.2 q=60.0 size=       1KiB time=00:00:01.62 bitrate=   2.8kbits/s speed=0.0181x elapsed=0:01:29.90    \nframe=  197 fps=2.2 q=57.0 size=       1KiB time=00:00:01.63 bitrate=   2.7kbits/s speed=0.0181x elapsed=0:01:30.42    \nframe=  200 fps=2.2 q=60.0 size=       1KiB time=00:00:01.65 bitrate=   2.7kbits/s speed=0.0181x elapsed=0:01:30.96    \nframe=  202 fps=2.2 q=60.0 size=       1KiB time=00:00:01.67 bitrate=   2.7kbits/s speed=0.0183x elapsed=0:01:31.51    \nframe=  203 fps=2.2 q=59.0 size=       1KiB time=00:00:01.68 bitrate=   2.7kbits/s speed=0.0183x elapsed=0:01:32.07    \nframe=  206 fps=2.2 q=58.0 size=       1KiB time=00:00:01.70 bitrate=   2.6kbits/s speed=0.0184x elapsed=0:01:32.59    \nframe=  207 fps=2.2 q=55.0 size=       1KiB time=00:00:01.71 bitrate=   2.6kbits/s speed=0.0184x elapsed=0:01:33.11    \nframe=  209 fps=2.2 q=45.0 size=       1KiB time=00:00:01.73 bitrate=   2.6kbits/s speed=0.0185x elapsed=0:01:33.64    \nframe=  210 fps=2.2 q=60.0 size=       1KiB time=00:00:01.74 bitrate=   2.6kbits/s speed=0.0185x elapsed=0:01:34.20    \nframe=  213 fps=2.2 q=57.0 size=       1KiB time=00:00:01.76 bitrate=   2.5kbits/s speed=0.0187x elapsed=0:01:34.72    \nframe=  214 fps=2.2 q=60.0 size=       1KiB time=00:00:01.77 bitrate=   2.5kbits/s speed=0.0186x elapsed=0:01:35.24    \nframe=  215 fps=2.2 q=59.0 size=       1KiB time=00:00:01.78 bitrate=   2.5kbits/s speed=0.0186x elapsed=0:01:35.77    \nframe=  218 fps=2.3 q=60.0 size=       1KiB time=00:00:01.80 bitrate=   2.5kbits/s speed=0.0188x elapsed=0:01:36.28    \nframe=  221 fps=2.3 q=57.0 size=       1KiB time=00:00:01.82 bitrate=   2.5kbits/s speed=0.0188x elapsed=0:01:36.94    \nframe=  223 fps=2.3 q=59.0 size=       1KiB time=00:00:01.85 bitrate=   2.4kbits/s speed=0.019x elapsed=0:01:37.52    \nframe=  225 fps=2.3 q=45.0 size=       1KiB time=00:00:01.86 bitrate=   2.4kbits/s speed=0.019x elapsed=0:01:38.04    \nframe=  227 fps=2.3 q=59.0 size=       1KiB time=00:00:01.88 bitrate=   2.4kbits/s speed=0.0191x elapsed=0:01:38.59    \nframe=  229 fps=2.3 q=57.0 size=       1KiB time=00:00:01.90 bitrate=   2.4kbits/s speed=0.0192x elapsed=0:01:39.11    \nframe=  230 fps=2.3 q=60.0 size=       1KiB time=00:00:01.90 bitrate=   2.3kbits/s speed=0.0191x elapsed=0:01:39.68    \nframe=  232 fps=2.3 q=60.0 size=       1KiB time=00:00:01.92 bitrate=   2.3kbits/s speed=0.0192x elapsed=0:01:40.26    \nframe=  234 fps=2.3 q=60.0 size=       1KiB time=00:00:01.94 bitrate=   2.3kbits/s speed=0.0193x elapsed=0:01:40.79    \nframe=  236 fps=2.3 q=60.0 size=       1KiB time=00:00:01.95 bitrate=   2.3kbits/s speed=0.0193x elapsed=0:01:41.31    \nframe=  239 fps=2.3 q=55.0 size=       1KiB time=00:00:01.98 bitrate=   2.3kbits/s speed=0.0195x elapsed=0:01:41.85    \nframe=  242 fps=2.4 q=60.0 size=       1KiB time=00:00:02.00 bitrate=   2.2kbits/s speed=0.0196x elapsed=0:01:42.37    \nframe=  245 fps=2.4 q=57.0 size=       1KiB time=00:00:02.03 bitrate=   2.2kbits/s speed=0.0198x elapsed=0:01:42.89    \nframe=  247 fps=2.4 q=59.0 size=       1KiB time=00:00:02.04 bitrate=   2.2kbits/s speed=0.0197x elapsed=0:01:43.40    \nframe=  250 fps=2.4 q=60.0 size=       1KiB time=00:00:02.07 bitrate=   2.2kbits/s speed=0.02x elapsed=0:01:43.96    \nframe=  250 fps=2.4 q=60.0 size=       1KiB time=00:00:02.07 bitrate=   2.2kbits/s speed=0.0199x elapsed=0:01:44.49    \nframe=  254 fps=2.4 q=58.0 size=       1KiB time=00:00:02.10 bitrate=   2.1kbits/s speed=0.0201x elapsed=0:01:45.02    \nframe=  255 fps=2.4 q=55.0 size=       1KiB time=00:00:02.11 bitrate=   2.1kbits/s speed=0.02x elapsed=0:01:45.57    \nframe=  256 fps=2.4 q=58.0 size=       1KiB time=00:00:02.12 bitrate=   2.1kbits/s speed=0.02x elapsed=0:01:46.10    \nframe=  258 fps=2.4 q=60.0 size=       1KiB time=00:00:02.14 bitrate=   2.1kbits/s speed=0.0201x elapsed=0:01:46.62    \nframe=  259 fps=2.4 q=59.0 size=       1KiB time=00:00:02.15 bitrate=   2.1kbits/s speed=0.0201x elapsed=0:01:47.17    \nframe=  261 fps=2.4 q=57.0 size=       1KiB time=00:00:02.16 bitrate=   2.1kbits/s speed=0.0201x elapsed=0:01:47.72    \nframe=  262 fps=2.4 q=60.0 size=       1KiB time=00:00:02.17 bitrate=   2.1kbits/s speed=0.0201x elapsed=0:01:48.28    \nframe=  263 fps=2.4 q=59.0 size=       1KiB time=00:00:02.18 bitrate=   2.1kbits/s speed=0.0201x elapsed=0:01:48.83    \nframe=  264 fps=2.4 q=60.0 size=       1KiB time=00:00:02.19 bitrate=   2.0kbits/s speed=0.02x elapsed=0:01:49.45    \nframe=  266 fps=2.4 q=60.0 size=       1KiB time=00:00:02.20 bitrate=   2.0kbits/s speed=0.0201x elapsed=0:01:50.01    \nframe=  268 fps=2.4 q=60.0 size=       1KiB time=00:00:02.22 bitrate=   2.0kbits/s speed=0.0201x elapsed=0:01:50.53    \nframe=  270 fps=2.4 q=60.0 size=       1KiB time=00:00:02.24 bitrate=   2.0kbits/s speed=0.0202x elapsed=0:01:51.07    \nframe=  273 fps=2.4 q=45.0 size=       1KiB time=00:00:02.26 bitrate=   2.0kbits/s speed=0.0203x elapsed=0:01:51.60    \nframe=  275 fps=2.5 q=59.0 size=       1KiB time=00:00:02.28 bitrate=   2.0kbits/s speed=0.0204x elapsed=0:01:52.12    \nframe=  278 fps=2.5 q=60.0 size=       1KiB time=00:00:02.30 bitrate=   1.9kbits/s speed=0.0205x elapsed=0:01:52.65    \nframe=  279 fps=2.5 q=59.0 size=       1KiB time=00:00:02.31 bitrate=   1.9kbits/s speed=0.0205x elapsed=0:01:53.19    \nframe=  281 fps=2.5 q=54.0 size=       1KiB time=00:00:02.33 bitrate=   1.9kbits/s speed=0.0205x elapsed=0:01:53.71    \nframe=  283 fps=2.5 q=58.0 size=       1KiB time=00:00:02.35 bitrate=   1.9kbits/s speed=0.0206x elapsed=0:01:54.23    \nframe=  286 fps=2.5 q=60.0 size=       1KiB time=00:00:02.37 bitrate=   1.9kbits/s speed=0.0207x elapsed=0:01:54.80    \nframe=  288 fps=2.5 q=60.0 size=       1KiB time=00:00:02.39 bitrate=   1.9kbits/s speed=0.0207x elapsed=0:01:55.31    \nframe=  290 fps=2.5 q=61.0 size=       1KiB time=00:00:02.40 bitrate=   1.9kbits/s speed=0.0208x elapsed=0:01:55.82    \nframe=  293 fps=2.5 q=58.0 size=       1KiB time=00:00:02.43 bitrate=   1.8kbits/s speed=0.0209x elapsed=0:01:56.36    \nframe=  294 fps=2.5 q=61.0 size=       1KiB time=00:00:02.44 bitrate=   1.8kbits/s speed=0.0209x elapsed=0:01:56.91    \nframe=  296 fps=2.5 q=61.0 size=       1KiB time=00:00:02.45 bitrate=   1.8kbits/s speed=0.0209x elapsed=0:01:57.45    \nframe=  299 fps=2.5 q=60.0 size=       1KiB time=00:00:02.48 bitrate=   1.8kbits/s speed=0.021x elapsed=0:01:57.97    \nframe=  302 fps=2.5 q=59.0 size=       1KiB time=00:00:02.50 bitrate=   1.8kbits/s speed=0.0212x elapsed=0:01:58.48    \nframe=  303 fps=2.5 q=56.0 size=       1KiB time=00:00:02.51 bitrate=   1.8kbits/s speed=0.0211x elapsed=0:01:59.04    \nframe=  307 fps=2.6 q=60.0 size=       1KiB time=00:00:02.55 bitrate=   1.8kbits/s speed=0.0213x elapsed=0:01:59.60    \nframe=  309 fps=2.6 q=58.0 size=       1KiB time=00:00:02.56 bitrate=   1.7kbits/s speed=0.0214x elapsed=0:02:00.16    \nframe=  311 fps=2.6 q=60.0 size=       1KiB time=00:00:02.58 bitrate=   1.7kbits/s speed=0.0214x elapsed=0:02:00.68    \nframe=  314 fps=2.6 q=61.0 size=       1KiB time=00:00:02.60 bitrate=   1.7kbits/s speed=0.0215x elapsed=0:02:01.22    \nframe=  317 fps=2.6 q=58.0 size=       1KiB time=00:00:02.63 bitrate=   1.7kbits/s speed=0.0216x elapsed=0:02:01.76    \nframe=  319 fps=2.6 q=56.0 size=       1KiB time=00:00:02.65 bitrate=   1.7kbits/s speed=0.0217x elapsed=0:02:02.36    \nframe=  323 fps=2.6 q=60.0 size=       1KiB time=00:00:02.68 bitrate=   1.7kbits/s speed=0.0218x elapsed=0:02:02.88    \nframe=  326 fps=2.6 q=61.0 size=       1KiB time=00:00:02.70 bitrate=   1.7kbits/s speed=0.0219x elapsed=0:02:03.40    \nframe=  327 fps=2.6 q=60.0 size=       1KiB time=00:00:02.71 bitrate=   1.6kbits/s speed=0.0219x elapsed=0:02:03.94    \nframe=  330 fps=2.7 q=61.0 size=       1KiB time=00:00:02.73 bitrate=   1.6kbits/s speed=0.022x elapsed=0:02:04.51    \nframe=  333 fps=2.7 q=58.0 size=       1KiB time=00:00:02.76 bitrate=   1.6kbits/s speed=0.0221x elapsed=0:02:05.06    \nframe=  334 fps=2.7 q=61.0 size=       1KiB time=00:00:02.77 bitrate=   1.6kbits/s speed=0.0221x elapsed=0:02:05.63    \nframe=  336 fps=2.7 q=61.0 size=       1KiB time=00:00:02.79 bitrate=   1.6kbits/s speed=0.0221x elapsed=0:02:06.18    \nframe=  339 fps=2.7 q=60.0 size=       1KiB time=00:00:02.81 bitrate=   1.6kbits/s speed=0.0222x elapsed=0:02:06.77    \nframe=  342 fps=2.7 q=61.0 size=       1KiB time=00:00:02.84 bitrate=   1.6kbits/s speed=0.0223x elapsed=0:02:07.29    \nframe=  343 fps=2.7 q=60.0 size=       1KiB time=00:00:02.85 bitrate=   1.6kbits/s speed=0.0223x elapsed=0:02:07.88    \nframe=  346 fps=2.7 q=61.0 size=       1KiB time=00:00:02.87 bitrate=   1.6kbits/s speed=0.0224x elapsed=0:02:08.43    \nframe=  349 fps=2.7 q=58.0 size=       1KiB time=00:00:02.90 bitrate=   1.5kbits/s speed=0.0225x elapsed=0:02:08.99    \nframe=  350 fps=2.7 q=61.0 size=       1KiB time=00:00:02.90 bitrate=   1.5kbits/s speed=0.0225x elapsed=0:02:09.52    \nframe=  351 fps=2.7 q=60.0 size=       1KiB time=00:00:02.91 bitrate=   1.5kbits/s speed=0.0224x elapsed=0:02:10.03    \nframe=  354 fps=2.7 q=61.0 size=       1KiB time=00:00:02.94 bitrate=   1.5kbits/s speed=0.0225x elapsed=0:02:10.58    \nframe=  358 fps=2.7 q=61.0 size=       1KiB time=00:00:02.97 bitrate=   1.5kbits/s speed=0.0227x elapsed=0:02:11.12    \nframe=  358 fps=2.7 q=61.0 size=       1KiB time=00:00:02.97 bitrate=   1.5kbits/s speed=0.0226x elapsed=0:02:11.64    \nframe=  359 fps=2.7 q=60.0 size=       1KiB time=00:00:02.98 bitrate=   1.5kbits/s speed=0.0226x elapsed=0:02:12.19    \nframe=  362 fps=2.7 q=60.0 size=       1KiB time=00:00:03.00 bitrate=   1.5kbits/s speed=0.0227x elapsed=0:02:12.73    \nframe=  365 fps=2.7 q=55.0 size=       1KiB time=00:00:03.03 bitrate=   1.5kbits/s speed=0.0228x elapsed=0:02:13.31    \nframe=  367 fps=2.7 q=58.0 size=       1KiB time=00:00:03.05 bitrate=   1.5kbits/s speed=0.0228x elapsed=0:02:13.83    \nframe=  370 fps=2.8 q=61.0 size=       1KiB time=00:00:03.07 bitrate=   1.5kbits/s speed=0.0229x elapsed=0:02:14.34    \nframe=  372 fps=2.8 q=61.0 size=       1KiB time=00:00:03.09 bitrate=   1.4kbits/s speed=0.0229x elapsed=0:02:14.86    \nframe=  374 fps=2.8 q=61.0 size=       1KiB time=00:00:03.10 bitrate=   1.4kbits/s speed=0.023x elapsed=0:02:15.39    \nframe=  377 fps=2.8 q=54.0 size=       1KiB time=00:00:03.13 bitrate=   1.4kbits/s speed=0.023x elapsed=0:02:15.94    \nframe=  379 fps=2.8 q=60.0 size=       1KiB time=00:00:03.15 bitrate=   1.4kbits/s speed=0.0231x elapsed=0:02:16.47    \nframe=  382 fps=2.8 q=61.0 size=       1KiB time=00:00:03.17 bitrate=   1.4kbits/s speed=0.0232x elapsed=0:02:17.01    \nframe=  384 fps=2.8 q=58.0 size=       1KiB time=00:00:03.19 bitrate=   1.4kbits/s speed=0.0232x elapsed=0:02:17.56    \nframe=  386 fps=2.8 q=61.0 size=       1KiB time=00:00:03.20 bitrate=   1.4kbits/s speed=0.0232x elapsed=0:02:18.10    \nframe=  389 fps=2.8 q=58.0 size=       1KiB time=00:00:03.23 bitrate=   1.4kbits/s speed=0.0233x elapsed=0:02:18.63    \nframe=  391 fps=2.8 q=60.0 size=       1KiB time=00:00:03.25 bitrate=   1.4kbits/s speed=0.0234x elapsed=0:02:19.18    \nframe=  392 fps=2.8 q=61.0 size=       1KiB time=00:00:03.25 bitrate=   1.4kbits/s speed=0.0233x elapsed=0:02:19.79    \nframe=  394 fps=2.8 q=61.0 size=       1KiB time=00:00:03.27 bitrate=   1.4kbits/s speed=0.0233x elapsed=0:02:20.39    \nframe=  398 fps=2.8 q=61.0 size=       1KiB time=00:00:03.30 bitrate=   1.4kbits/s speed=0.0235x elapsed=0:02:20.94    \nframe=  398 fps=2.8 q=61.0 size=       1KiB time=00:00:03.30 bitrate=   1.4kbits/s speed=0.0234x elapsed=0:02:21.48    \nframe=  401 fps=2.8 q=48.0 size=       1KiB time=00:00:03.33 bitrate=   1.3kbits/s speed=0.0235x elapsed=0:02:22.00    \nframe=  404 fps=2.8 q=61.0 size=       1KiB time=00:00:03.35 bitrate=   1.3kbits/s speed=0.0235x elapsed=0:02:22.56    \nframe=  406 fps=2.8 q=61.0 size=       1KiB time=00:00:03.37 bitrate=   1.3kbits/s speed=0.0236x elapsed=0:02:23.09    \nframe=  409 fps=2.8 q=54.0 size=       1KiB time=00:00:03.39 bitrate=   1.3kbits/s speed=0.0236x elapsed=0:02:23.68    \nframe=  412 fps=2.9 q=61.0 size=       1KiB time=00:00:03.42 bitrate=   1.3kbits/s speed=0.0237x elapsed=0:02:24.29    \nframe=  414 fps=2.9 q=61.0 size=       1KiB time=00:00:03.44 bitrate=   1.3kbits/s speed=0.0238x elapsed=0:02:24.83    \nframe=  415 fps=2.9 q=60.0 size=       1KiB time=00:00:03.45 bitrate=   1.3kbits/s speed=0.0237x elapsed=0:02:25.44    \nframe=  418 fps=2.9 q=61.0 size=       1KiB time=00:00:03.47 bitrate=   1.3kbits/s speed=0.0238x elapsed=0:02:26.00    \nframe=  422 fps=2.9 q=61.0 size=       1KiB time=00:00:03.50 bitrate=   1.3kbits/s speed=0.0239x elapsed=0:02:26.52    \nframe=  423 fps=2.9 q=60.0 size=       1KiB time=00:00:03.51 bitrate=   1.3kbits/s speed=0.0239x elapsed=0:02:27.04    \nframe=  425 fps=2.9 q=54.0 size=       1KiB time=00:00:03.53 bitrate=   1.3kbits/s speed=0.0239x elapsed=0:02:27.63    \nframe=  430 fps=2.9 q=61.0 size=       1KiB time=00:00:03.57 bitrate=   1.3kbits/s speed=0.0241x elapsed=0:02:28.15    \nframe=  430 fps=2.9 q=61.0 size=       1KiB time=00:00:03.57 bitrate=   1.3kbits/s speed=0.024x elapsed=0:02:28.69    \nframe=  432 fps=2.9 q=61.0 size=       1KiB time=00:00:03.59 bitrate=   1.2kbits/s speed=0.0241x elapsed=0:02:29.23    \nframe=  436 fps=2.9 q=61.0 size=       1KiB time=00:00:03.62 bitrate=   1.2kbits/s speed=0.0242x elapsed=0:02:29.77    \nframe=  438 fps=2.9 q=61.0 size=       1KiB time=00:00:03.64 bitrate=   1.2kbits/s speed=0.0242x elapsed=0:02:30.30    \nframe=  441 fps=2.9 q=54.0 size=       1KiB time=00:00:03.66 bitrate=   1.2kbits/s speed=0.0243x elapsed=0:02:30.81    \nframe=  444 fps=2.9 q=61.0 size=       1KiB time=00:00:03.69 bitrate=   1.2kbits/s speed=0.0244x elapsed=0:02:31.34    \nframe=  446 fps=2.9 q=61.0 size=       1KiB time=00:00:03.70 bitrate=   1.2kbits/s speed=0.0244x elapsed=0:02:31.86    \nframe=  449 fps=2.9 q=47.0 size=       1KiB time=00:00:03.72 bitrate=   1.2kbits/s speed=0.0244x elapsed=0:02:32.45    \nframe=  452 fps=3.0 q=61.0 size=       1KiB time=00:00:03.75 bitrate=   1.2kbits/s speed=0.0245x elapsed=0:02:33.02    \nframe=  453 fps=2.9 q=58.0 size=       1KiB time=00:00:03.76 bitrate=   1.2kbits/s speed=0.0245x elapsed=0:02:33.57    \nframe=  455 fps=3.0 q=60.0 size=       1KiB time=00:00:03.78 bitrate=   1.2kbits/s speed=0.0245x elapsed=0:02:34.11    \nframe=  458 fps=3.0 q=61.0 size=       1KiB time=00:00:03.80 bitrate=   1.2kbits/s speed=0.0246x elapsed=0:02:34.65    \nframe=  461 fps=3.0 q=58.0 size=       1KiB time=00:00:03.83 bitrate=   1.2kbits/s speed=0.0247x elapsed=0:02:35.20    \nframe=  463 fps=3.0 q=60.0 size=       1KiB time=00:00:03.85 bitrate=   1.2kbits/s speed=0.0247x elapsed=0:02:35.72    \nframe=  467 fps=3.0 q=60.0 size=       1KiB time=00:00:03.88 bitrate=   1.2kbits/s speed=0.0248x elapsed=0:02:36.28    \nframe=  470 fps=3.0 q=61.0 size=       1KiB time=00:00:03.90 bitrate=   1.1kbits/s speed=0.0249x elapsed=0:02:36.81    \nframe=  471 fps=3.0 q=60.0 size=       1KiB time=00:00:03.91 bitrate=   1.1kbits/s speed=0.0249x elapsed=0:02:37.36    \nframe=  474 fps=3.0 q=61.0 size=       1KiB time=00:00:03.94 bitrate=   1.1kbits/s speed=0.025x elapsed=0:02:37.90    \nframe=  478 fps=3.0 q=61.0 size=       1KiB time=00:00:03.96 bitrate=   1.1kbits/s speed=0.025x elapsed=0:02:38.43    \nframe=  480 fps=3.0 q=61.0 size=       1KiB time=00:00:03.99 bitrate=   1.1kbits/s speed=0.0251x elapsed=0:02:38.95    \nframe=  486 fps=3.0 q=61.0 size=       1KiB time=00:00:04.04 bitrate=   1.1kbits/s speed=0.0253x elapsed=0:02:39.50    \nframe=  487 fps=3.0 q=60.0 size=       1KiB time=00:00:04.05 bitrate=   1.1kbits/s speed=0.0253x elapsed=0:02:40.06    \nframe=  491 fps=3.1 q=58.0 size=       1KiB time=00:00:04.08 bitrate=   1.1kbits/s speed=0.0254x elapsed=0:02:40.57    \nframe=  496 fps=3.1 q=60.0 size=       1KiB time=00:00:04.12 bitrate=   1.1kbits/s speed=0.0256x elapsed=0:02:41.10    \nframe=  501 fps=3.1 q=58.0 size=       1KiB time=00:00:04.16 bitrate=   1.1kbits/s speed=0.0258x elapsed=0:02:41.65    \nframe=  502 fps=3.1 q=61.0 size=       1KiB time=00:00:04.17 bitrate=   1.1kbits/s speed=0.0257x elapsed=0:02:42.17    \nframe=  509 fps=3.1 q=58.0 size=       1KiB time=00:00:04.23 bitrate=   1.1kbits/s speed=0.026x elapsed=0:02:42.69    \nframe=  511 fps=3.1 q=60.0 size=       1KiB time=00:00:04.25 bitrate=   1.1kbits/s speed=0.026x elapsed=0:02:43.35    \nframe=  513 fps=3.1 q=47.0 size=       1KiB time=00:00:04.26 bitrate=   1.0kbits/s speed=0.026x elapsed=0:02:43.86    \nframe=  513 fps=3.1 q=47.0 size=       1KiB time=00:00:04.26 bitrate=   1.0kbits/s speed=0.026x elapsed=0:02:44.38    \nframe=  517 fps=3.1 q=58.0 size=       1KiB time=00:00:04.30 bitrate=   1.0kbits/s speed=0.0261x elapsed=0:02:44.89    \nframe=  521 fps=3.1 q=54.0 size=       1KiB time=00:00:04.33 bitrate=   1.0kbits/s speed=0.0262x elapsed=0:02:45.40    \nframe=  525 fps=3.2 q=58.0 size=       1KiB time=00:00:04.36 bitrate=   1.0kbits/s speed=0.0263x elapsed=0:02:45.92    \nframe=  529 fps=3.2 q=47.0 size=       1KiB time=00:00:04.40 bitrate=   1.0kbits/s speed=0.0264x elapsed=0:02:46.43    \nframe=  529 fps=3.2 q=47.0 size=       1KiB time=00:00:04.40 bitrate=   1.0kbits/s speed=0.0264x elapsed=0:02:46.95    \nframe=  537 fps=3.2 q=55.0 size=       1KiB time=00:00:04.46 bitrate=   1.0kbits/s speed=0.0267x elapsed=0:02:47.47    \nframe=  537 fps=3.2 q=55.0 size=       1KiB time=00:00:04.46 bitrate=   1.0kbits/s speed=0.0266x elapsed=0:02:47.99    \nframe=  539 fps=3.2 q=58.0 size=       1KiB time=00:00:04.48 bitrate=   1.0kbits/s speed=0.0266x elapsed=0:02:48.50    \nframe=  545 fps=3.2 q=48.0 size=       1KiB time=00:00:04.53 bitrate=   1.0kbits/s speed=0.0268x elapsed=0:02:49.01    \nframe=  545 fps=3.2 q=48.0 size=       1KiB time=00:00:04.53 bitrate=   1.0kbits/s speed=0.0267x elapsed=0:02:49.53    \nframe=  553 fps=3.3 q=54.0 size=       1KiB time=00:00:04.60 bitrate=   1.0kbits/s speed=0.027x elapsed=0:02:50.05    \nframe=  553 fps=3.2 q=54.0 size=       1KiB time=00:00:04.60 bitrate=   1.0kbits/s speed=0.027x elapsed=0:02:50.57    \nframe=  557 fps=3.3 q=55.0 size=       1KiB time=00:00:04.63 bitrate=   1.0kbits/s speed=0.0271x elapsed=0:02:51.10    \nframe=  561 fps=3.3 q=47.0 size=       1KiB time=00:00:04.66 bitrate=   1.0kbits/s speed=0.0272x elapsed=0:02:51.61    \nframe=  563 fps=3.3 q=59.0 size=       1KiB time=00:00:04.68 bitrate=   1.0kbits/s speed=0.0272x elapsed=0:02:52.12    \nframe=  569 fps=3.3 q=54.0 size=       1KiB time=00:00:04.73 bitrate=   0.9kbits/s speed=0.0274x elapsed=0:02:52.64    \nframe=  569 fps=3.3 q=54.0 size=       1KiB time=00:00:04.73 bitrate=   0.9kbits/s speed=0.0273x elapsed=0:02:53.15    \nframe=  573 fps=3.3 q=57.0 size=       1KiB time=00:00:04.76 bitrate=   0.9kbits/s speed=0.0274x elapsed=0:02:53.67    \nframe=  575 fps=3.3 q=58.0 size=       1KiB time=00:00:04.78 bitrate=   0.9kbits/s speed=0.0275x elapsed=0:02:54.18    \nframe=  577 fps=3.3 q=47.0 size=       1KiB time=00:00:04.80 bitrate=   0.9kbits/s speed=0.0275x elapsed=0:02:54.70    \nframe=  581 fps=3.3 q=56.0 size=       1KiB time=00:00:04.83 bitrate=   0.9kbits/s speed=0.0276x elapsed=0:02:55.22    \nframe=  585 fps=3.3 q=53.0 size=       1KiB time=00:00:04.86 bitrate=   0.9kbits/s speed=0.0277x elapsed=0:02:55.74    \nframe=  587 fps=3.3 q=59.0 size=       1KiB time=00:00:04.88 bitrate=   0.9kbits/s speed=0.0277x elapsed=0:02:56.25    \n[out#0/matroska @ 000002a1a39490c0] video:1208KiB audio:0KiB subtitle:0KiB other streams:0KiB global headers:0KiB muxing overhead: 0.269009%\nframe=  600 fps=3.4 q=59.0 Lsize=    1212KiB time=00:00:04.99 bitrate=1988.6kbits/s speed=0.0283x elapsed=0:02:56.64    \n",
  "seconds": 180.54012274742126,
  "probe_out": {}
}